<?xml version="1.0" encoding="utf-8"?>
<!-- Generator: Adobe Illustrator 22.0.0, SVG Export Plug-In . SVG Version: 6.00 Build 0)  -->
<svg version="1.1" id="Laag_1" xmlns="http://www.w3.org/2000/svg" xmlns:xlink="http://www.w3.org/1999/xlink" x="0px" y="0px"
	 viewBox="0 0 26.6 25.3" style="enable-background:new 0 0 26.6 25.3;" xml:space="preserve">
<style type="text/css">
	.st0{fill:#FFFFFF;}
</style>
<g>
	<path class="st0" d="M22.9,14.9l2.4-9.4c0.1-0.2,0-0.5-0.1-0.7s-0.4-0.3-0.6-0.3H6.8L6.1,1.6C6,1.2,5.7,0.9,5.3,0.9h0l-3.7,0
		c-0.5,0-0.8,0.4-0.8,0.8c0,0.5,0.4,0.8,0.8,0.8l3.1,0l4,15.9c0.1,0.4,0.4,0.6,0.8,0.6l13.2,0c0.5,0,0.8-0.4,0.8-0.8
		s-0.4-0.8-0.8-0.8l-12.6,0l-0.5-1.9h12.5C22.4,15.5,22.8,15.3,22.9,14.9z"/>
	<circle class="st0" cx="11.5" cy="22" r="2"/>
	<circle class="st0" cx="20.3" cy="22" r="2"/>
</g>
</svg>
